<svg viewBox="0 0 25 23" version="1.1" xmlns="http://www.w3.org/2000/svg" xmlns:xlink="http://www.w3.org/1999/xlink">
    <!-- Generator: Sketch 3.6.1 (26313) - http://www.bohemiancoding.com/sketch -->
    <g id="Icons" stroke="none" stroke-width="1" fill="none" fill-rule="evenodd">
        <g id="Desktop" class="currentcolor">
            <path d="M22.4443,18 L2.5583,18 C1.6993,18 1.0003,17.301 1.0003,16.441 L1.0003,15 L24.0003,15 L24.0003,16.444 C24.0003,17.302 23.3023,18 22.4443,18 L22.4443,18 Z M10.0003,22 L15.0003,22 L15.0003,19 L10.0003,19 L10.0003,22 Z M2.5583,1 L22.4443,1 C23.3023,1 24.0003,1.698 24.0003,2.556 L24.0003,14 L1.0003,14 L1.0003,2.559 C1.0003,1.699 1.6993,1 2.5583,1 L2.5583,1 Z M22.4443,0 L2.5583,0 C1.1483,0 0.0003,1.148 0.0003,2.559 L0.0003,16.441 C0.0003,17.852 1.1483,19 2.5583,19 L9.0003,19 L9.0003,22 L7.0003,22 L7.0003,23 L18.0003,23 L18.0003,22 L16.0003,22 L16.0003,19 L22.4443,19 C23.8533,19 25.0003,17.854 25.0003,16.444 L25.0003,2.556 C25.0003,1.146 23.8533,0 22.4443,0 L22.4443,0 Z" id="Fill-1"></path>
        </g>
    </g>
</svg>