<?xml version="1.0" encoding="utf-8"?>
<!-- Generator: Adobe Illustrator 24.1.3, SVG Export Plug-In . SVG Version: 6.00 Build 0)  -->
<svg version="1.1" id="Layer_1" xmlns="http://www.w3.org/2000/svg" xmlns:xlink="http://www.w3.org/1999/xlink" x="0px" y="0px"
	 viewBox="0 0 56 56" style="enable-background:new 0 0 56 56;" xml:space="preserve">
<style type="text/css">
	.st0{fill:#FFFFFF;}
	.st1{fill:#2F55D4;}
	.st2{opacity:0.5;fill:#2F55D4;}
</style>
<g id="Layer_2_1_">
	<g id="Layer_1-2">
		<path class="st0" d="M3.5,0.5h49c1.7,0,3,1.3,3,3v49c0,1.7-1.3,3-3,3h-49c-1.7,0-3-1.3-3-3v-49C0.5,1.8,1.8,0.5,3.5,0.5z"/>
		<path class="st1" d="M52.5,56h-49C1.6,56,0,54.4,0,52.5v-49C0,1.6,1.6,0,3.5,0h49C54.4,0,56,1.6,56,3.5l0,0v49
			C56,54.4,54.4,56,52.5,56z M3.5,1C2.1,1,1,2.1,1,3.5v49C1,53.9,2.1,55,3.5,55h49c1.4,0,2.5-1.1,2.5-2.5v-49C55,2.1,53.9,1,52.5,1
			H3.5z"/>
		<circle class="st1" cx="45.5" cy="9.5" r="4.8"/>
		<circle class="st1" cx="45.5" cy="21.1" r="4.8"/>
		<circle class="st1" cx="45.5" cy="32.6" r="4.8"/>
		<circle class="st1" cx="45.5" cy="45.4" r="5.5"/>
		<path class="st2" d="M21.8,6.9h13c1.4,0,2.5,1.1,2.5,2.5l0,0c0,1.4-1.1,2.5-2.5,2.5h-13c-1.4,0-2.5-1.1-2.5-2.5l0,0
			C19.3,8,20.5,6.9,21.8,6.9z"/>
		<path class="st2" d="M29.6,18.9h6c1.5,0,2.8,1.2,2.8,2.8l0,0l0,0c0,1.2-1,2.2-2.2,2.2h-6.5c-1.2,0-2.2-1-2.2-2.2v-0.5
			C27.3,19.9,28.3,18.9,29.6,18.9L29.6,18.9z"/>
		<path class="st2" d="M21.8,29.9h13c1.4,0,2.5,1.1,2.5,2.5l0,0c0,1.4-1.1,2.5-2.5,2.5h-13c-1.4,0-2.5-1.1-2.5-2.5l0,0
			C19.3,31,20.5,29.9,21.8,29.9z"/>
		<path class="st2" d="M26.6,42.9h8c1.5,0,2.7,1.2,2.7,2.7l0,0c0,1.3-1,2.3-2.3,2.3l0,0h-8.4c-1.3,0-2.3-1-2.3-2.3l0,0v-0.4
			C24.3,43.9,25.4,42.9,26.6,42.9L26.6,42.9z"/>
	</g>
</g>
</svg>
