
<svg version="1.1" id="Layer_1" xmlns="http://www.w3.org/2000/svg" x="0px" y="0px" viewBox="0 0 119 29.1"><style type="text/css">
	.st0{fill:#FFFFFF;}
	.st1{fill:#FBBC05;}
	.st2{fill:#EA4335;}
	.st3{fill:#34A853;}
</style><g id="Layer_2_1_"><g id="icon"><path class="st0" d="M14.7,24.3c-4.9-0.5-8.7-4.7-8.6-9.6c0-1,0.1-1.9,0.4-2.8l-2.7-0.8c-2,6.6,1.7,13.6,8.4,15.6
 c1.1,0.3,2.2,0.5,3.4,0.5L14.7,24.3z M26.9,8.8l-2.2,2c2.1,4.9-0.3,10.6-5.2,12.7c-0.6,0.2-1.2,0.4-1.8,0.6l0.7,2.7
 c6.8-1.5,11.1-8.1,9.6-14.9C27.7,10.8,27.3,9.8,26.9,8.8L26.9,8.8z"></path><path class="st0" d="M25.2,6.5l-2.1,1.9c-1.7-2-4-3.2-6.6-3.4c-0.3,0-0.5,0-0.8,0c-3.2,0-6.2,1.6-8,4.3l-2.8-1
 c3.5-6,11.1-8,17.1-4.5l0,0C23.3,4.5,24.3,5.4,25.2,6.5L25.2,6.5z"></path><circle class="st1" cx="21.4" cy="4.9" r="4.8"></circle><circle class="st2" cx="4.8" cy="14.6" r="4.8"></circle><circle class="st3" cx="21.4" cy="24.3" r="4.8"></circle></g><g id="social9"><g class="st4"><path class="st0" d="M52,18.9c0,1.6-0.6,3-1.8,4c-1.2,1-2.7,1.5-4.4,1.5c-1.6,0-2.9-0.5-4.1-1.4c-1.2-0.9-2-2.1-2.5-3.7l2.3-0.9
 c0.2,0.6,0.4,1.1,0.7,1.5c0.3,0.5,0.6,0.8,1,1.2c0.4,0.3,0.8,0.6,1.2,0.8c0.5,0.2,0.9,0.3,1.4,0.3c1.1,0,2-0.3,2.7-0.9
 c0.7-0.6,1-1.3,1-2.3c0-0.8-0.3-1.5-0.9-2c-0.5-0.5-1.6-1.1-3-1.6c-1.5-0.5-2.4-0.9-2.8-1.1c-2-1-3-2.5-3-4.5
 c0-1.4,0.5-2.6,1.6-3.5c1.1-1,2.5-1.5,4.1-1.5c1.4,0,2.7,0.4,3.7,1.1c1,0.7,1.7,1.6,2.1,2.7l-2.3,0.9C49,8.8,48.6,8.2,48,7.8
 c-0.6-0.5-1.4-0.7-2.3-0.7c-0.9,0-1.7,0.3-2.4,0.8c-0.6,0.5-1,1.1-1,1.9c0,0.6,0.3,1.2,0.8,1.7c0.6,0.5,1.8,1,3.6,1.7
 c1.9,0.6,3.3,1.4,4.1,2.4C51.6,16.4,52,17.6,52,18.9z"></path><path class="st0" d="M53.8,17.5c0-2,0.6-3.6,1.9-4.9c1.3-1.3,2.8-1.9,4.7-1.9c1.9,0,3.5,0.6,4.7,1.9c1.3,1.3,1.9,2.9,1.9,4.9
 c0,2-0.6,3.6-1.9,4.9c-1.2,1.3-2.8,1.9-4.7,1.9c-1.9,0-3.5-0.6-4.7-1.9C54.4,21.1,53.8,19.5,53.8,17.5z M56.2,17.5
 c0,1.4,0.4,2.5,1.2,3.4c0.8,0.9,1.8,1.3,3,1.3c1.2,0,2.2-0.4,3-1.3c0.8-0.9,1.2-2,1.2-3.4c0-1.4-0.4-2.5-1.2-3.3
 c-0.8-0.9-1.8-1.3-3-1.3c-1.2,0-2.2,0.4-3,1.3C56.6,15,56.2,16.1,56.2,17.5z"></path><path class="st0" d="M75,24.3c-1.9,0-3.5-0.6-4.7-1.9c-1.2-1.3-1.9-3-1.9-4.9c0-2,0.6-3.6,1.9-4.9c1.3-1.3,2.8-1.9,4.7-1.9
 c1.3,0,2.5,0.3,3.4,1c1,0.7,1.7,1.6,2.2,2.7l-2.2,0.9c-0.7-1.6-1.9-2.4-3.6-2.4c-1.1,0-2.1,0.4-2.9,1.3c-0.8,0.9-1.2,2-1.2,3.3
 c0,1.3,0.4,2.4,1.2,3.3c0.8,0.9,1.8,1.3,2.9,1.3c1.8,0,3-0.8,3.7-2.4l2.1,0.9c-0.5,1.2-1.2,2.1-2.2,2.7S76.4,24.3,75,24.3z"></path></g><g class="st4"><path class="st0" d="M86,6.7c0,0.5-0.2,0.9-0.5,1.2c-0.3,0.3-0.7,0.5-1.2,0.5S83.4,8.2,83,7.9s-0.5-0.7-0.5-1.2s0.2-0.9,0.5-1.2
 C83.4,5.1,83.8,5,84.3,5s0.9,0.2,1.2,0.5C85.8,5.8,86,6.2,86,6.7z M85.5,11.1v12.8H83V11.1H85.5z"></path></g><g class="st4"><path class="st0" d="M93.3,10.7c1.8,0,3.2,0.5,4.2,1.4s1.5,2.3,1.5,3.9v7.9h-2.3v-1.8h-0.1c-1,1.5-2.3,2.2-4,2.2
 c-1.4,0-2.6-0.4-3.5-1.3c-1-0.8-1.4-1.9-1.4-3.1c0-1.3,0.5-2.4,1.5-3.2c1-0.8,2.3-1.2,4-1.2c1.4,0,2.6,0.3,3.5,0.8v-0.5
 c0-0.8-0.3-1.5-1-2.1c-0.7-0.6-1.4-0.9-2.3-0.9c-1.3,0-2.4,0.6-3.2,1.7l-2.1-1.3C89.3,11.5,91.1,10.7,93.3,10.7z M90.2,20
 c0,0.6,0.3,1.2,0.8,1.6s1.2,0.6,1.9,0.6c1,0,1.9-0.4,2.7-1.1s1.2-1.6,1.2-2.6c-0.8-0.6-1.8-0.9-3.1-0.9c-1,0-1.8,0.2-2.4,0.7
 C90.5,18.7,90.2,19.3,90.2,20z"></path><path class="st0" d="M104.2,5.2v18.7h-2.4V5.2H104.2z"></path><path class="st0" d="M112.3,17.4c-1.4,0-2.7-0.6-3.9-1.7c-1.1-1.2-1.7-2.5-1.7-4.1c0-1.6,0.6-3,1.8-4.2c1.2-1.2,2.7-1.8,4.3-1.8
 c1.7,0,3.2,0.6,4.4,1.8c1.2,1.2,1.8,2.6,1.8,4.2c0,1.4-0.6,3.1-1.8,4.9l-5.2,7.8l-1.9-1.3l4.4-6.1l-0.1-0.1
 C113.9,17.2,113.2,17.4,112.3,17.4z M116.6,11.6c0-1-0.4-1.9-1.1-2.6c-0.7-0.7-1.6-1.1-2.6-1.1S111,8.3,110.2,9
 c-0.7,0.7-1.1,1.6-1.1,2.6c0,1,0.4,1.9,1.1,2.6c0.8,0.7,1.6,1.1,2.6,1.1c1,0,1.9-0.4,2.6-1.1C116.2,13.5,116.6,12.6,116.6,11.6z"></path></g></g></g></svg>