<svg id="Layer_1" data-name="Layer 1" xmlns="http://www.w3.org/2000/svg" viewBox="0 0 34.44 35.42"><defs><style>.cls-1{fill:#4285f4;}.cls-2{fill:#fbbc05;}.cls-3{fill:#ea4335;}.cls-4{fill:#34a853;}</style></defs><g id="icon"><path class="cls-1" d="M18,29.46A11.78,11.78,0,0,1,7.38,17.73a11.12,11.12,0,0,1,.52-3.44l-3.29-1a15.26,15.26,0,0,0,10.26,19,15,15,0,0,0,4.05.64ZM32.75,10.64,30.09,13.1a11.8,11.8,0,0,1-6.3,15.44h0a11.34,11.34,0,0,1-2.28.7l.9,3.33A15.24,15.24,0,0,0,34.09,14.46h0a14.85,14.85,0,0,0-1.41-3.87Z"/><path class="cls-1" d="M30.73,7.76,28.19,10.1a11.68,11.68,0,0,0-8-4.13,8.34,8.34,0,0,0-1,0,11.75,11.75,0,0,0-9.84,5.24L6,10.1A15.26,15.26,0,0,1,26.88,4.65a15.43,15.43,0,0,1,3.81,3.16Z"/><circle class="cls-2" cx="26.07" cy="5.9" r="5.9"/><circle class="cls-3" cx="5.9" cy="17.73" r="5.9"/><circle class="cls-4" cx="26.07" cy="29.52" r="5.9"/></g></svg>