<svg version="1.1" id="Layer_1" xmlns="http://www.w3.org/2000/svg" xmlns:xlink="http://www.w3.org/1999/xlink" x="0px" y="0px"
	 viewBox="0 0 15 26" style="enable-background:new 0 0 15 26;" xml:space="preserve">
<g>
	<path class="currentcolor" d="M12,1H3C1.9,1,1,1.9,1,3v20c0,1.1,0.9,2,2,2h9c1.1,0,2-0.9,2-2V3C14,1.9,13.1,1,12,1z M9,23H6v-1h3V23z M13,19
		c0,0.6-0.4,1-1,1H3c-0.6,0-1-0.4-1-1V4c0-0.6,0.4-1,1-1h9c0.6,0,1,0.4,1,1V19z"/>
	<rect x="6" y="22" class="currentcolor" width="3" height="1"/>
	<path class="currentcolor" d="M12,3H3C2.4,3,2,3.4,2,4v15c0,0.6,0.4,1,1,1h9c0.6,0,1-0.4,1-1V4C13,3.4,12.6,3,12,3z M12,19H3V4h9V19z"/>
	<path class="currentcolor" d="M12,0H3C1.3,0,0,1.3,0,3v20c0,1.7,1.3,3,3,3h9c1.7,0,3-1.3,3-3V3C15,1.3,13.7,0,12,0z M14,23c0,1.1-0.9,2-2,2
		H3c-1.1,0-2-0.9-2-2V3c0-1.1,0.9-2,2-2h9c1.1,0,2,0.9,2,2V23z"/>
</g>
</svg>
