<?xml version="1.0" encoding="utf-8"?>
<!-- Generator: Adobe Illustrator 24.1.1, SVG Export Plug-In . SVG Version: 6.00 Build 0)  -->
<svg version="1.1" id="Layer_1" xmlns="http://www.w3.org/2000/svg" xmlns:xlink="http://www.w3.org/1999/xlink" x="0px" y="0px"
	 viewBox="0 0 56 56" style="enable-background:new 0 0 56 56;" xml:space="preserve">
<style type="text/css">
	.st0{fill:#CCCCCC;}
	.st1{fill:#C9C9C9;}
	.st2{fill:#FFFFFF;}
	.st3{fill:#EFEFEF;}
</style>
<g id="Layer_2_1_">
	<g id="Layer_1-2">
		<path class="st0" d="M3.5,0.5h49c1.7,0,3,1.3,3,3v49c0,1.7-1.3,3-3,3h-49c-1.7,0-3-1.3-3-3v-49C0.5,1.8,1.8,0.5,3.5,0.5z"/>
		<path class="st1" d="M52.5,56h-49C1.6,56,0,54.4,0,52.5v-49C0,1.6,1.6,0,3.5,0h49C54.4,0,56,1.6,56,3.5l0,0v49
			C56,54.4,54.4,56,52.5,56z M3.5,1C2.1,1,1,2.1,1,3.5v49C1,53.9,2.1,55,3.5,55h49c1.4,0,2.5-1.1,2.5-2.5v-49C55,2.1,53.9,1,52.5,1
			H3.5z"/>
		<rect x="16.5" y="27" class="st2" width="37" height="26"/>
		<rect x="19.1" y="31.7" class="st3" width="32" height="2"/>
		<rect x="18.9" y="35" class="st3" width="25" height="2"/>
		<rect x="23.2" y="43.9" class="st1" width="5.5" height="5.5"/>
		<rect x="29.3" y="43.9" class="st1" width="5.5" height="5.5"/>
		<rect x="41.3" y="43.9" class="st1" width="5.5" height="5.5"/>
		<rect x="35.3" y="43.9" class="st1" width="5.5" height="5.5"/>
	</g>
</g>
</svg>
