<?xml version="1.0" encoding="utf-8"?>
<!-- Generated by IcoMoon.io -->
<svg version="1.1" xmlns="http://www.w3.org/2000/svg" 
xmlns:xlink="http://www.w3.org/1999/xlink" width="496" height="80" viewBox="0 0 496 80">
<symbol id="icon-home" width="16" height="16" viewBox="0 0 16 16" x="0" y="0">
<path d="M16 9.226l-8-6.21-8 6.21v-2.532l8-6.21 8 6.21zM14 9v6h-4v-4h-4v4h-4v-6l6-4.5z"></path>
</symbol>
<symbol id="icon-office" width="16" height="16" viewBox="0 0 16 16" x="32" y="0">
<path d="M0 16h8v-16h-8v16zM5 2h2v2h-2v-2zM5 6h2v2h-2v-2zM5 10h2v2h-2v-2zM1 2h2v2h-2v-2zM1 6h2v2h-2v-2zM1 10h2v2h-2v-2zM9 5h7v1h-7zM9 16h2v-4h3v4h2v-9h-7z"></path>
</symbol>
<symbol id="icon-pencil" width="16" height="16" viewBox="0 0 16 16" x="64" y="0">
<path d="M13.5 0c1.381 0 2.5 1.119 2.5 2.5 0 0.563-0.186 1.082-0.5 1.5l-1 1-3.5-3.5 1-1c0.418-0.314 0.937-0.5 1.5-0.5zM1 11.5l-1 4.5 4.5-1 9.25-9.25-3.5-3.5-9.25 9.25zM11.181 5.681l-7 7-0.862-0.862 7-7 0.862 0.862z"></path>
</symbol>
<symbol id="icon-images" width="18" height="16" viewBox="0 0 18 16" x="96" y="0">
<path d="M17 2h-1v-1c0-0.55-0.45-1-1-1h-14c-0.55 0-1 0.45-1 1v12c0 0.55 0.45 1 1 1h1v1c0 0.55 0.45 1 1 1h14c0.55 0 1-0.45 1-1v-12c0-0.55-0.45-1-1-1zM2 3v10h-0.998c-0.001-0.001-0.001-0.001-0.002-0.002v-11.996c0.001-0.001 0.001-0.001 0.002-0.002h13.996c0.001 0.001 0.001 0.001 0.002 0.002v0.998h-12c-0.55 0-1 0.45-1 1v0zM17 14.998c-0.001 0.001-0.001 0.001-0.002 0.002h-13.996c-0.001-0.001-0.001-0.001-0.002-0.002v-11.996c0.001-0.001 0.001-0.001 0.002-0.002h13.996c0.001 0.001 0.001 0.001 0.002 0.002v11.996z"></path>
<path d="M15 5.5c0 0.828-0.672 1.5-1.5 1.5s-1.5-0.672-1.5-1.5 0.672-1.5 1.5-1.5 1.5 0.672 1.5 1.5z"></path>
<path d="M16 14h-12v-2l3.5-6 4 5h1l3.5-3z"></path>
</symbol>
<symbol id="icon-camera" width="16" height="16" viewBox="0 0 16 16" x="128" y="0">
<path d="M4.75 9.5c0 1.795 1.455 3.25 3.25 3.25s3.25-1.455 3.25-3.25-1.455-3.25-3.25-3.25-3.25 1.455-3.25 3.25zM15 4h-3.5c-0.25-1-0.5-2-1.5-2h-4c-1 0-1.25 1-1.5 2h-3.5c-0.55 0-1 0.45-1 1v9c0 0.55 0.45 1 1 1h14c0.55 0 1-0.45 1-1v-9c0-0.55-0.45-1-1-1zM8 13.938c-2.451 0-4.438-1.987-4.438-4.438s1.987-4.438 4.438-4.438c2.451 0 4.438 1.987 4.438 4.438s-1.987 4.438-4.438 4.438zM15 7h-2v-1h2v1z"></path>
</symbol>
<symbol id="icon-play" width="16" height="16" viewBox="0 0 16 16" x="160" y="0">
<path d="M15.331 2.502c-2.244-0.323-4.724-0.502-7.331-0.502s-5.087 0.179-7.331 0.502c-0.43 1.683-0.669 3.543-0.669 5.498s0.239 3.815 0.669 5.498c2.244 0.323 4.724 0.502 7.331 0.502s5.087-0.179 7.331-0.502c0.43-1.683 0.669-3.543 0.669-5.498s-0.239-3.815-0.669-5.498zM6 11v-6l5 3-5 3z"></path>
</symbol>
<symbol id="icon-video-camera" width="16" height="16" viewBox="0 0 16 16" x="192" y="0">
<path d="M6 4.5c0-1.381 1.119-2.5 2.5-2.5s2.5 1.119 2.5 2.5c0 1.381-1.119 2.5-2.5 2.5s-2.5-1.119-2.5-2.5zM0 4.5c0-1.381 1.119-2.5 2.5-2.5s2.5 1.119 2.5 2.5c0 1.381-1.119 2.5-2.5 2.5s-2.5-1.119-2.5-2.5zM12 9.5v-1.5c0-0.55-0.45-1-1-1h-10c-0.55 0-1 0.45-1 1v5c0 0.55 0.45 1 1 1h10c0.55 0 1-0.45 1-1v-1.5l4 2.5v-7l-4 2.5zM10 12h-8v-3h8v3z"></path>
</symbol>
<symbol id="icon-phone" width="16" height="16" viewBox="0 0 16 16" x="224" y="0">
<path d="M11 10c-1 1-1 2-2 2s-2-1-3-2-2-2-2-3 1-1 2-2-2-4-3-4-3 3-3 3c0 2 2.055 6.055 4 8s6 4 8 4c0 0 3-2 3-3s-3-4-4-3z"></path>
</symbol>
<symbol id="icon-bubble2" width="16" height="16" viewBox="0 0 16 16" x="256" y="0">
<path d="M8 3c-0.858 0-1.687 0.135-2.464 0.402-0.73 0.251-1.38 0.605-1.932 1.054-1.035 0.841-1.604 1.922-1.604 3.044 0 0.63 0.175 1.24 0.52 1.815 0.356 0.592 0.89 1.134 1.547 1.566 0.474 0.312 0.793 0.812 0.878 1.373 0.028 0.187 0.046 0.376 0.053 0.564 0.117-0.097 0.23-0.201 0.342-0.312 0.377-0.377 0.887-0.586 1.414-0.586 0.084 0 0.168 0.005 0.252 0.016 0.328 0.042 0.662 0.063 0.995 0.063 0.858 0 1.687-0.135 2.464-0.402 0.73-0.251 1.38-0.605 1.932-1.054 1.035-0.841 1.604-1.922 1.604-3.044s-0.57-2.203-1.604-3.044c-0.552-0.448-1.202-0.803-1.932-1.054-0.777-0.267-1.606-0.402-2.464-0.402zM8 1v0c4.418 0 8 2.91 8 6.5s-3.582 6.5-8 6.5c-0.424 0-0.841-0.027-1.247-0.079-1.718 1.718-3.77 2.027-5.753 2.072v-0.421c1.071-0.525 2-1.48 2-2.572 0-0.152-0.012-0.302-0.034-0.448-1.809-1.192-2.966-3.012-2.966-5.052 0-3.59 3.582-6.5 8-6.5z"></path>
</symbol>
<symbol id="icon-search" width="16" height="16" viewBox="0 0 16 16" x="288" y="0">
<path d="M15.504 13.616l-3.79-3.223c-0.392-0.353-0.811-0.514-1.149-0.499 0.895-1.048 1.435-2.407 1.435-3.893 0-3.314-2.686-6-6-6s-6 2.686-6 6 2.686 6 6 6c1.486 0 2.845-0.54 3.893-1.435-0.016 0.338 0.146 0.757 0.499 1.149l3.223 3.79c0.552 0.613 1.453 0.665 2.003 0.115s0.498-1.452-0.115-2.003zM6 10c-2.209 0-4-1.791-4-4s1.791-4 4-4 4 1.791 4 4-1.791 4-4 4z"></path>
</symbol>
<symbol id="icon-zoom-in" width="16" height="16" viewBox="0 0 16 16" x="320" y="0">
<path d="M15.504 13.616l-3.79-3.223c-0.392-0.353-0.811-0.514-1.149-0.499 0.895-1.048 1.435-2.407 1.435-3.893 0-3.314-2.686-6-6-6s-6 2.686-6 6 2.686 6 6 6c1.486 0 2.845-0.54 3.893-1.435-0.016 0.338 0.146 0.757 0.499 1.149l3.223 3.79c0.552 0.613 1.453 0.665 2.003 0.115s0.498-1.452-0.115-2.003zM6 10c-2.209 0-4-1.791-4-4s1.791-4 4-4 4 1.791 4 4-1.791 4-4 4zM7 3h-2v2h-2v2h2v2h2v-2h2v-2h-2z"></path>
</symbol>
<symbol id="icon-zoom-out" width="16" height="16" viewBox="0 0 16 16" x="352" y="0">
<path d="M15.504 13.616l-3.79-3.223c-0.392-0.353-0.811-0.514-1.149-0.499 0.895-1.048 1.435-2.407 1.435-3.893 0-3.314-2.686-6-6-6s-6 2.686-6 6 2.686 6 6 6c1.486 0 2.845-0.54 3.893-1.435-0.016 0.338 0.146 0.757 0.499 1.149l3.223 3.79c0.552 0.613 1.453 0.665 2.003 0.115s0.498-1.452-0.115-2.003zM6 10c-2.209 0-4-1.791-4-4s1.791-4 4-4 4 1.791 4 4-1.791 4-4 4zM3 5h6v2h-6z"></path>
</symbol>
<symbol id="icon-key" width="16" height="16" viewBox="0 0 16 16" x="384" y="0">
<path d="M11 0c-2.761 0-5 2.239-5 5 0 0.313 0.029 0.619 0.084 0.916l-6.084 6.084v3c0 0.552 0.448 1 1 1h1v-1h2v-2h2v-2h2l1.298-1.298c0.531 0.192 1.105 0.298 1.702 0.298 2.761 0 5-2.239 5-5s-2.239-5-5-5zM12.498 5.002c-0.828 0-1.5-0.672-1.5-1.5s0.672-1.5 1.5-1.5 1.5 0.672 1.5 1.5-0.672 1.5-1.5 1.5z"></path>
</symbol>
<symbol id="icon-lock" width="16" height="16" viewBox="0 0 16 16" x="416" y="0">
<path d="M9.25 7h-0.25v-3c0-1.654-1.346-3-3-3h-2c-1.654 0-3 1.346-3 3v3h-0.25c-0.412 0-0.75 0.338-0.75 0.75v7.5c0 0.412 0.338 0.75 0.75 0.75h8.5c0.412 0 0.75-0.338 0.75-0.75v-7.5c0-0.412-0.338-0.75-0.75-0.75zM3 4c0-0.551 0.449-1 1-1h2c0.551 0 1 0.449 1 1v3h-4v-3z"></path>
</symbol>
<symbol id="icon-unlocked" width="16" height="16" viewBox="0 0 16 16" x="448" y="0">
<path d="M12 1c1.654 0 3 1.346 3 3v3h-2v-3c0-0.551-0.449-1-1-1h-2c-0.551 0-1 0.449-1 1v3h0.25c0.412 0 0.75 0.338 0.75 0.75v7.5c0 0.412-0.338 0.75-0.75 0.75h-8.5c-0.412 0-0.75-0.338-0.75-0.75v-7.5c0-0.412 0.338-0.75 0.75-0.75h6.25v-3c0-1.654 1.346-3 3-3h2z"></path>
</symbol>
<symbol id="icon-share2" width="16" height="16" viewBox="0 0 16 16" x="480" y="0">
<path d="M13.5 11c-0.706 0-1.342 0.293-1.797 0.763l-6.734-3.367c0.021-0.129 0.032-0.261 0.032-0.396s-0.011-0.267-0.032-0.396l6.734-3.367c0.455 0.47 1.091 0.763 1.797 0.763 1.381 0 2.5-1.119 2.5-2.5s-1.119-2.5-2.5-2.5-2.5 1.119-2.5 2.5c0 0.135 0.011 0.267 0.031 0.396l-6.734 3.367c-0.455-0.47-1.091-0.763-1.797-0.763-1.381 0-2.5 1.119-2.5 2.5s1.119 2.5 2.5 2.5c0.706 0 1.343-0.293 1.797-0.763l6.734 3.367c-0.021 0.129-0.031 0.261-0.031 0.396 0 1.381 1.119 2.5 2.5 2.5s2.5-1.119 2.5-2.5c0-1.381-1.119-2.5-2.5-2.5z"></path>
</symbol>
<symbol id="icon-mail4" width="16" height="16" viewBox="0 0 16 16" x="0" y="32">
<path d="M8 0c-4.418 0-8 3.582-8 8s3.582 8 8 8 8-3.582 8-8-3.582-8-8-8zM4 4h8c0.143 0 0.281 0.031 0.409 0.088l-4.409 5.143-4.409-5.143c0.127-0.058 0.266-0.088 0.409-0.088zM3 11v-6c0-0.021 0.001-0.042 0.002-0.063l2.932 3.421-2.9 2.9c-0.023-0.083-0.034-0.17-0.034-0.258zM12 12h-8c-0.088 0-0.175-0.012-0.258-0.034l2.846-2.846 1.413 1.648 1.413-1.648 2.846 2.846c-0.083 0.023-0.17 0.034-0.258 0.034zM13 11c0 0.088-0.012 0.175-0.034 0.258l-2.9-2.9 2.932-3.421c0.001 0.021 0.002 0.042 0.002 0.063v6z"></path>
</symbol>
<symbol id="icon-amazon" width="16" height="16" viewBox="0 0 16 16" x="32" y="32">
<path d="M14.463 13.831c-1.753 1.294-4.291 1.981-6.478 1.981-3.066 0-5.825-1.131-7.912-3.019-0.163-0.147-0.019-0.35 0.178-0.234 2.253 1.313 5.041 2.1 7.919 2.1 1.941 0 4.075-0.403 6.041-1.238 0.294-0.125 0.544 0.197 0.253 0.409z"></path>
<path d="M15.191 13c-0.225-0.287-1.481-0.137-2.047-0.069-0.172 0.019-0.197-0.128-0.044-0.238 1.003-0.703 2.647-0.5 2.838-0.266 0.194 0.238-0.050 1.884-0.991 2.672-0.144 0.122-0.281 0.056-0.219-0.103 0.216-0.528 0.688-1.709 0.463-1.997z"></path>
<path d="M11.053 11.838l0.003 0.003c0.387-0.341 1.084-0.95 1.478-1.278 0.156-0.125 0.128-0.334 0.006-0.509-0.353-0.488-0.728-0.884-0.728-1.784v-3c0-1.272 0.088-2.438-0.847-3.313-0.738-0.706-1.963-0.956-2.9-0.956-1.831 0-3.875 0.684-4.303 2.947-0.047 0.241 0.131 0.369 0.287 0.403l1.866 0.203c0.175-0.009 0.3-0.181 0.334-0.356 0.159-0.778 0.813-1.156 1.547-1.156 0.397 0 0.847 0.144 1.081 0.5 0.269 0.397 0.234 0.938 0.234 1.397v0.25c-1.116 0.125-2.575 0.206-3.619 0.666-1.206 0.522-2.053 1.584-2.053 3.147 0 2 1.259 3 2.881 3 1.369 0 2.116-0.322 3.172-1.403 0.35 0.506 0.463 0.753 1.103 1.284 0.147 0.078 0.328 0.072 0.456-0.044zM9.113 7.144c0 0.75 0.019 1.375-0.359 2.041-0.306 0.544-0.791 0.875-1.331 0.875-0.737 0-1.169-0.563-1.169-1.394 0-1.641 1.472-1.938 2.863-1.938v0.416z"></path>
</symbol>
<symbol id="icon-google-plus" width="16" height="16" viewBox="0 0 16 16" x="64" y="32">
<path d="M5.091 7.147v1.747h2.888c-0.116 0.75-0.872 2.197-2.888 2.197-1.737 0-3.156-1.441-3.156-3.216s1.419-3.216 3.156-3.216c0.991 0 1.65 0.422 2.028 0.784l1.381-1.331c-0.888-0.828-2.037-1.331-3.409-1.331-2.816 0.003-5.091 2.278-5.091 5.094s2.275 5.091 5.091 5.091c2.937 0 4.888-2.066 4.888-4.975 0-0.334-0.037-0.591-0.081-0.844h-4.806z"></path>
<path d="M16 7h-1.5v-1.5h-1.5v1.5h-1.5v1.5h1.5v1.5h1.5v-1.5h1.5z"></path>
</symbol>
<symbol id="icon-facebook" width="16" height="16" viewBox="0 0 16 16" x="96" y="32">
<path d="M9.5 3h2.5v-3h-2.5c-1.93 0-3.5 1.57-3.5 3.5v1.5h-2v3h2v8h3v-8h2.5l0.5-3h-3v-1.5c0-0.271 0.229-0.5 0.5-0.5z"></path>
</symbol>
<symbol id="icon-instagram" width="16" height="16" viewBox="0 0 16 16" x="128" y="32">
<path d="M8 1.441c2.137 0 2.391 0.009 3.231 0.047 0.781 0.034 1.203 0.166 1.484 0.275 0.372 0.144 0.641 0.319 0.919 0.597 0.281 0.281 0.453 0.547 0.6 0.919 0.109 0.281 0.241 0.706 0.275 1.484 0.037 0.844 0.047 1.097 0.047 3.231s-0.009 2.391-0.047 3.231c-0.034 0.781-0.166 1.203-0.275 1.484-0.144 0.372-0.319 0.641-0.597 0.919-0.281 0.281-0.547 0.453-0.919 0.6-0.281 0.109-0.706 0.241-1.484 0.275-0.844 0.037-1.097 0.047-3.231 0.047s-2.391-0.009-3.231-0.047c-0.781-0.034-1.203-0.166-1.484-0.275-0.372-0.144-0.641-0.319-0.919-0.597-0.281-0.281-0.453-0.547-0.6-0.919-0.109-0.281-0.241-0.706-0.275-1.484-0.038-0.844-0.047-1.097-0.047-3.231s0.009-2.391 0.047-3.231c0.034-0.781 0.166-1.203 0.275-1.484 0.144-0.372 0.319-0.641 0.597-0.919 0.281-0.281 0.547-0.453 0.919-0.6 0.281-0.109 0.706-0.241 1.484-0.275 0.841-0.038 1.094-0.047 3.231-0.047zM8 0c-2.172 0-2.444 0.009-3.297 0.047-0.85 0.038-1.434 0.175-1.941 0.372-0.528 0.206-0.975 0.478-1.419 0.925-0.447 0.444-0.719 0.891-0.925 1.416-0.197 0.509-0.334 1.091-0.372 1.941-0.037 0.856-0.047 1.128-0.047 3.3s0.009 2.444 0.047 3.297c0.038 0.85 0.175 1.434 0.372 1.941 0.206 0.528 0.478 0.975 0.925 1.419 0.444 0.444 0.891 0.719 1.416 0.922 0.509 0.197 1.091 0.334 1.941 0.372 0.853 0.037 1.125 0.047 3.297 0.047s2.444-0.009 3.297-0.047c0.85-0.037 1.434-0.175 1.941-0.372 0.525-0.203 0.972-0.478 1.416-0.922s0.719-0.891 0.922-1.416c0.197-0.509 0.334-1.091 0.372-1.941 0.037-0.853 0.047-1.125 0.047-3.297s-0.009-2.444-0.047-3.297c-0.037-0.85-0.175-1.434-0.372-1.941-0.197-0.531-0.469-0.978-0.916-1.422-0.444-0.444-0.891-0.719-1.416-0.922-0.509-0.197-1.091-0.334-1.941-0.372-0.856-0.041-1.128-0.050-3.3-0.050v0z"></path>
<path d="M8 3.891c-2.269 0-4.109 1.841-4.109 4.109s1.841 4.109 4.109 4.109 4.109-1.841 4.109-4.109c0-2.269-1.841-4.109-4.109-4.109zM8 10.666c-1.472 0-2.666-1.194-2.666-2.666s1.194-2.666 2.666-2.666c1.472 0 2.666 1.194 2.666 2.666s-1.194 2.666-2.666 2.666z"></path>
<path d="M13.231 3.728c0 0.53-0.43 0.959-0.959 0.959s-0.959-0.43-0.959-0.959c0-0.53 0.43-0.959 0.959-0.959s0.959 0.43 0.959 0.959z"></path>
</symbol>
<symbol id="icon-whatsapp" width="16" height="16" viewBox="0 0 16 16" x="160" y="32">
<path d="M13.641 2.325c-1.497-1.5-3.488-2.325-5.609-2.325-4.369 0-7.925 3.556-7.925 7.928 0 1.397 0.366 2.763 1.059 3.963l-1.125 4.109 4.203-1.103c1.159 0.631 2.463 0.966 3.787 0.966h0.003c0 0 0 0 0 0 4.369 0 7.928-3.556 7.928-7.928 0-2.119-0.825-4.109-2.322-5.609zM8.034 14.525v0c-1.184 0-2.344-0.319-3.356-0.919l-0.241-0.144-2.494 0.653 0.666-2.431-0.156-0.25c-0.663-1.047-1.009-2.259-1.009-3.506 0-3.634 2.956-6.591 6.594-6.591 1.759 0 3.416 0.688 4.659 1.931 1.244 1.247 1.928 2.9 1.928 4.662-0.003 3.637-2.959 6.594-6.591 6.594zM11.647 9.588c-0.197-0.1-1.172-0.578-1.353-0.644s-0.313-0.1-0.447 0.1c-0.131 0.197-0.512 0.644-0.628 0.778-0.116 0.131-0.231 0.15-0.428 0.050s-0.838-0.309-1.594-0.984c-0.588-0.525-0.987-1.175-1.103-1.372s-0.013-0.306 0.088-0.403c0.091-0.088 0.197-0.231 0.297-0.347s0.131-0.197 0.197-0.331c0.066-0.131 0.034-0.247-0.016-0.347s-0.447-1.075-0.609-1.472c-0.159-0.388-0.325-0.334-0.447-0.341-0.116-0.006-0.247-0.006-0.378-0.006s-0.347 0.050-0.528 0.247c-0.181 0.197-0.694 0.678-0.694 1.653s0.709 1.916 0.809 2.050c0.1 0.131 1.397 2.134 3.384 2.991 0.472 0.203 0.841 0.325 1.128 0.419 0.475 0.15 0.906 0.128 1.247 0.078 0.381-0.056 1.172-0.478 1.338-0.941s0.166-0.859 0.116-0.941c-0.047-0.088-0.178-0.137-0.378-0.238z"></path>
</symbol>
<symbol id="icon-twitter" width="16" height="16" viewBox="0 0 16 16" x="192" y="32">
<path d="M16 3.538c-0.588 0.263-1.222 0.438-1.884 0.516 0.678-0.406 1.197-1.050 1.444-1.816-0.634 0.375-1.338 0.65-2.084 0.797-0.6-0.638-1.453-1.034-2.397-1.034-1.813 0-3.281 1.469-3.281 3.281 0 0.256 0.028 0.506 0.084 0.747-2.728-0.138-5.147-1.444-6.766-3.431-0.281 0.484-0.444 1.050-0.444 1.65 0 1.138 0.578 2.144 1.459 2.731-0.538-0.016-1.044-0.166-1.488-0.409 0 0.013 0 0.028 0 0.041 0 1.591 1.131 2.919 2.634 3.219-0.275 0.075-0.566 0.116-0.866 0.116-0.212 0-0.416-0.022-0.619-0.059 0.419 1.303 1.631 2.253 3.066 2.281-1.125 0.881-2.538 1.406-4.078 1.406-0.266 0-0.525-0.016-0.784-0.047 1.456 0.934 3.181 1.475 5.034 1.475 6.037 0 9.341-5.003 9.341-9.341 0-0.144-0.003-0.284-0.009-0.425 0.641-0.459 1.197-1.038 1.637-1.697z"></path>
</symbol>
<symbol id="icon-rss" width="16" height="16" viewBox="0 0 16 16" x="224" y="32">
<path d="M2.13 11.733c-1.175 0-2.13 0.958-2.13 2.126 0 1.174 0.955 2.122 2.13 2.122 1.179 0 2.133-0.948 2.133-2.122-0-1.168-0.954-2.126-2.133-2.126zM0.002 5.436v3.067c1.997 0 3.874 0.781 5.288 2.196 1.412 1.411 2.192 3.297 2.192 5.302h3.080c-0-5.825-4.739-10.564-10.56-10.564zM0.006 0v3.068c7.122 0 12.918 5.802 12.918 12.932h3.076c0-8.82-7.176-16-15.994-16z"></path>
</symbol>
<symbol id="icon-youtube" width="16" height="16" viewBox="0 0 16 16" x="256" y="32">
<path d="M15.841 4.8c0 0-0.156-1.103-0.637-1.587-0.609-0.637-1.291-0.641-1.603-0.678-2.237-0.163-5.597-0.163-5.597-0.163h-0.006c0 0-3.359 0-5.597 0.163-0.313 0.038-0.994 0.041-1.603 0.678-0.481 0.484-0.634 1.587-0.634 1.587s-0.159 1.294-0.159 2.591v1.213c0 1.294 0.159 2.591 0.159 2.591s0.156 1.103 0.634 1.588c0.609 0.637 1.409 0.616 1.766 0.684 1.281 0.122 5.441 0.159 5.441 0.159s3.363-0.006 5.6-0.166c0.313-0.037 0.994-0.041 1.603-0.678 0.481-0.484 0.637-1.588 0.637-1.588s0.159-1.294 0.159-2.591v-1.213c-0.003-1.294-0.162-2.591-0.162-2.591zM6.347 10.075v-4.497l4.322 2.256-4.322 2.241z"></path>
</symbol>
<symbol id="icon-github" width="16" height="16" viewBox="0 0 16 16" x="288" y="32">
<path d="M8 0.198c-4.418 0-8 3.582-8 8 0 3.535 2.292 6.533 5.471 7.591 0.4 0.074 0.547-0.174 0.547-0.385 0-0.191-0.008-0.821-0.011-1.489-2.226 0.484-2.695-0.944-2.695-0.944-0.364-0.925-0.888-1.171-0.888-1.171-0.726-0.497 0.055-0.486 0.055-0.486 0.803 0.056 1.226 0.824 1.226 0.824 0.714 1.223 1.872 0.869 2.328 0.665 0.072-0.517 0.279-0.87 0.508-1.070-1.777-0.202-3.645-0.888-3.645-3.954 0-0.873 0.313-1.587 0.824-2.147-0.083-0.202-0.357-1.015 0.077-2.117 0 0 0.672-0.215 2.201 0.82 0.638-0.177 1.322-0.266 2.002-0.269 0.68 0.003 1.365 0.092 2.004 0.269 1.527-1.035 2.198-0.82 2.198-0.82 0.435 1.102 0.162 1.916 0.079 2.117 0.513 0.56 0.823 1.274 0.823 2.147 0 3.073-1.872 3.749-3.653 3.947 0.287 0.248 0.543 0.735 0.543 1.481 0 1.070-0.009 1.932-0.009 2.195 0 0.213 0.144 0.462 0.55 0.384 3.177-1.059 5.466-4.057 5.466-7.59 0-4.418-3.582-8-8-8z"></path>
</symbol>
<symbol id="icon-wordpress" width="16" height="16" viewBox="0 0 16 16" x="320" y="32">
<path d="M2 8c0 2.313 1.38 4.312 3.382 5.259l-2.862-7.637c-0.333 0.727-0.52 1.531-0.52 2.378zM12.050 7.705c0-0.722-0.266-1.222-0.495-1.612-0.304-0.482-0.589-0.889-0.589-1.371 0-0.537 0.418-1.037 1.008-1.037 0.027 0 0.052 0.003 0.078 0.005-1.067-0.953-2.49-1.534-4.052-1.534-2.096 0-3.94 1.048-5.013 2.634 0.141 0.004 0.274 0.007 0.386 0.007 0.627 0 1.599-0.074 1.599-0.074 0.323-0.018 0.361 0.444 0.038 0.482 0 0-0.325 0.037-0.687 0.055l2.185 6.33 1.313-3.835-0.935-2.495c-0.323-0.019-0.629-0.055-0.629-0.055-0.323-0.019-0.285-0.5 0.038-0.482 0 0 0.991 0.074 1.58 0.074 0.627 0 1.599-0.074 1.599-0.074 0.323-0.018 0.362 0.444 0.038 0.482 0 0-0.326 0.037-0.687 0.055l2.168 6.282 0.599-1.947c0.259-0.809 0.457-1.389 0.457-1.889zM8.105 8.511l-1.8 5.095c0.538 0.154 1.106 0.238 1.695 0.238 0.699 0 1.369-0.117 1.992-0.331-0.016-0.025-0.031-0.052-0.043-0.081l-1.844-4.921zM13.265 5.196c0.026 0.186 0.040 0.386 0.040 0.601 0 0.593-0.114 1.259-0.456 2.093l-1.833 5.16c1.784-1.013 2.983-2.895 2.983-5.051 0-1.016-0.267-1.971-0.735-2.803zM8 0c-4.418 0-8 3.582-8 8s3.582 8 8 8 8-3.582 8-8-3.582-8-8-8zM8 15c-3.866 0-7-3.134-7-7s3.134-7 7-7 7 3.134 7 7-3.134 7-7 7z"></path>
</symbol>
<symbol id="icon-joomla" width="16" height="16" viewBox="0 0 16 16" x="352" y="32">
<path d="M4.156 4.323c0.513-0.513 1.344-0.513 1.856-0l0.122 0.123 1.58-1.581-0.123-0.123c-0.9-0.902-2.164-1.217-3.319-0.946-0.166-1.018-1.048-1.796-2.112-1.796-1.182 0-2.14 0.96-2.14 2.143 0 1.021 0.712 1.875 1.667 2.091-0.362 1.21-0.066 2.576 0.888 3.531l3.56 3.561 1.578-1.581-3.56-3.561c-0.511-0.511-0.512-1.346 0.003-1.861zM15.98 2.143c0-1.184-0.958-2.143-2.14-2.143-1.082 0-1.976 0.804-2.12 1.847-1.204-0.354-2.559-0.055-3.51 0.897l-3.56 3.561 1.58 1.581 3.559-3.56c0.515-0.515 1.344-0.514 1.854-0.003 0.512 0.513 0.512 1.346-0.001 1.859l-0.122 0.122 1.578 1.582 0.123-0.124c0.945-0.946 1.245-2.293 0.9-3.494 1.049-0.138 1.858-1.037 1.858-2.125zM14.16 11.735c0.283-1.163-0.031-2.443-0.939-3.352l-3.555-3.562-1.58 1.58 3.555 3.563c0.515 0.516 0.514 1.345 0.003 1.857-0.513 0.513-1.344 0.513-1.857-0l-0.121-0.122-1.578 1.582 0.121 0.121c0.961 0.962 2.338 1.257 3.553 0.883 0.197 0.979 1.061 1.716 2.098 1.716 1.181 0 2.14-0.959 2.14-2.143 0-1.081-0.8-1.976-1.84-2.122zM9.568 8.261l-3.555 3.562c-0.511 0.512-1.344 0.513-1.859-0.002-0.513-0.514-0.513-1.345-0.001-1.859l0.122-0.121-1.579-1.58-0.121 0.12c-0.918 0.919-1.228 2.216-0.929 3.39-0.944 0.223-1.646 1.072-1.646 2.086-0 1.184 0.958 2.143 2.14 2.143 1.017-0.001 1.869-0.71 2.087-1.662 1.167 0.29 2.453-0.020 3.365-0.934l3.555-3.562-1.578-1.582z"></path>
</symbol>
<symbol id="icon-tumblr" width="16" height="16" viewBox="0 0 16 16" x="384" y="32">
<path d="M9.001 7l-0 3.659c0 0.928-0.012 1.463 0.086 1.727 0.098 0.262 0.342 0.534 0.609 0.691 0.354 0.212 0.758 0.318 1.214 0.318 0.81 0 1.289-0.107 2.090-0.633v2.405c-0.683 0.321-1.279 0.509-1.833 0.639-0.555 0.129-1.154 0.194-1.798 0.194-0.732 0-1.163-0.092-1.725-0.276-0.562-0.185-1.042-0.45-1.438-0.79-0.398-0.343-0.672-0.706-0.826-1.091s-0.23-0.944-0.23-1.676v-5.611h-2.147v-2.266c0.628-0.204 1.331-0.497 1.778-0.877 0.449-0.382 0.809-0.839 1.080-1.374 0.272-0.534 0.459-1.214 0.561-2.039h2.579l-0 4h3.999v3h-3.999z"></path>
</symbol>
<symbol id="icon-tux" width="16" height="16" viewBox="0 0 16 16" x="416" y="32">
<path d="M8.87 11.514c-1.28 0.596-2.471 0.589-3.271 0.532-0.954-0.069-1.721-0.33-2.058-0.558-0.208-0.141-0.49-0.086-0.631 0.122s-0.086 0.49 0.122 0.631c0.542 0.367 1.501 0.64 2.503 0.712 0.17 0.012 0.356 0.020 0.557 0.020 0.872 0 1.979-0.083 3.163-0.634 0.228-0.106 0.326-0.376 0.22-0.604s-0.376-0.326-0.604-0.22zM13.921 10.841c0.044-3.948 0.449-11.409-7.109-10.806-7.463 0.601-5.484 8.484-5.595 11.124-0.099 1.397-0.562 3.104-1.217 4.841h2.017c0.207-0.736 0.36-1.464 0.425-2.159 0.122 0.085 0.252 0.167 0.391 0.245 0.226 0.133 0.42 0.31 0.626 0.497 0.48 0.438 1.025 0.934 2.089 0.996 0.071 0.004 0.143 0.006 0.214 0.006 1.077 0 1.813-0.471 2.404-0.85 0.283-0.181 0.528-0.338 0.759-0.413 0.655-0.205 1.227-0.536 1.655-0.957 0.067-0.066 0.129-0.133 0.187-0.202 0.238 0.873 0.564 1.856 0.926 2.836h4.307c-1.034-1.597-2.101-3.162-2.079-5.159zM1.939 8.693c0-0 0-0-0-0.001-0.074-1.288 0.542-2.372 1.377-2.421s1.571 0.957 1.645 2.245c0 0 0 0 0 0.001 0.004 0.069 0.006 0.138 0.006 0.206-0.264 0.066-0.503 0.163-0.717 0.275-0.001-0.010-0.001-0.019-0.002-0.029 0-0 0-0 0-0-0.071-0.731-0.462-1.284-0.873-1.234s-0.686 0.684-0.614 1.415c0 0 0 0 0 0 0.031 0.319 0.123 0.604 0.251 0.819-0.032 0.025-0.122 0.091-0.225 0.166-0.078 0.057-0.172 0.126-0.286 0.21-0.311-0.408-0.524-0.993-0.562-1.655zM10.395 11.878c-0.030 0.681-0.92 1.322-1.743 1.579l-0.005 0.002c-0.342 0.111-0.647 0.306-0.97 0.513-0.543 0.347-1.104 0.706-1.914 0.706-0.053 0-0.108-0.002-0.161-0.005-0.742-0.043-1.090-0.36-1.529-0.761-0.232-0.211-0.472-0.43-0.781-0.611l-0.007-0.004c-0.667-0.377-1.081-0.845-1.108-1.253-0.013-0.203 0.077-0.378 0.268-0.522 0.416-0.312 0.695-0.516 0.879-0.651 0.205-0.15 0.267-0.195 0.313-0.239 0.033-0.031 0.068-0.065 0.106-0.103 0.382-0.371 1.021-0.993 2.002-0.993 0.6 0 1.264 0.231 1.971 0.686 0.333 0.217 0.623 0.317 0.99 0.444 0.252 0.087 0.539 0.186 0.922 0.35l0.006 0.003c0.357 0.147 0.78 0.415 0.76 0.858zM10.198 10.278c-0.069-0.035-0.14-0.068-0.215-0.098-0.345-0.148-0.622-0.248-0.852-0.328 0.127-0.248 0.206-0.558 0.213-0.894 0-0 0-0 0-0 0.018-0.818-0.395-1.483-0.922-1.484s-0.968 0.661-0.986 1.479c0 0 0 0 0 0-0.001 0.027-0.001 0.053-0 0.080-0.324-0.149-0.643-0.258-0.956-0.324-0.001-0.031-0.003-0.061-0.004-0.092 0-0 0-0.001 0-0.001-0.030-1.491 0.884-2.725 2.043-2.756s2.122 1.152 2.153 2.642c0 0 0 0.001 0 0.001 0.014 0.674-0.167 1.295-0.475 1.776z"></path>
</symbol>
<symbol id="icon-appleinc" width="16" height="16" viewBox="0 0 16 16" x="448" y="32">
<path d="M12.367 8.501c-0.020-2.026 1.652-2.998 1.727-3.046-0.94-1.375-2.404-1.564-2.926-1.585-1.246-0.126-2.431 0.734-3.064 0.734-0.631 0-1.607-0.715-2.64-0.696-1.358 0.020-2.61 0.79-3.31 2.006-1.411 2.448-0.361 6.076 1.014 8.061 0.672 0.972 1.473 2.064 2.525 2.025 1.013-0.040 1.396-0.656 2.621-0.656s1.569 0.656 2.641 0.635c1.090-0.020 1.781-0.991 2.448-1.966 0.772-1.128 1.089-2.219 1.108-2.275-0.024-0.011-2.126-0.816-2.147-3.236zM10.353 2.555c0.558-0.677 0.935-1.617 0.832-2.555-0.804 0.033-1.779 0.536-2.356 1.212-0.518 0.6-0.971 1.557-0.85 2.476 0.898 0.070 1.815-0.456 2.373-1.132z"></path>
</symbol>
<symbol id="icon-windows" width="16" height="16" viewBox="0 0 16 16" x="480" y="32">
<path d="M6.441 7.999c-0.745-0.383-1.47-0.577-2.154-0.577-0.093 0-0.187 0.003-0.28 0.011-0.873 0.072-1.671 0.303-2.184 0.482-0.136 0.050-0.276 0.103-0.419 0.161l-1.403 4.866c0.964-0.357 1.817-0.53 2.598-0.53 1.263 0 2.18 0.472 2.937 0.958 0.359-1.217 1.219-4.158 1.476-5.036-0.187-0.114-0.376-0.228-0.571-0.333zM8.255 9.235l-1.413 4.909c0.419 0.24 1.83 1.001 2.91 1.001 0.872 0 1.848-0.223 2.982-0.684l1.349-4.718c-0.916 0.296-1.795 0.446-2.617 0.446-1.499 0-2.549-0.486-3.211-0.952zM4.575 5.762c1.205 0.012 2.096 0.472 2.835 0.945l1.449-4.958c-0.305-0.175-1.106-0.611-1.685-0.759-0.381-0.089-0.782-0.135-1.206-0.135-0.809 0.015-1.694 0.218-2.701 0.622l-1.382 4.853c1.013-0.382 1.885-0.568 2.689-0.568 0.001 0 0.002 0 0.002 0zM16 3.096c-0.919 0.357-1.816 0.539-2.672 0.539-1.433 0-2.489-0.497-3.173-0.974l-1.437 4.972c0.965 0.62 2.005 0.936 3.096 0.936 0.89 0 1.812-0.214 2.742-0.636l-0.003-0.035 0.058-0.014 1.39-4.788z"></path>
</symbol>
<symbol id="icon-skype" width="16" height="16" viewBox="0 0 16 16" x="0" y="64">
<path d="M6.65 0.584c-0.025-0.016-0.053-0.028-0.078-0.041-0.028 0.006-0.053 0.009-0.081 0.016l0.159 0.025z"></path>
<path d="M0.575 6.578c-0.006 0.028-0.009 0.056-0.012 0.081 0.016 0.025 0.025 0.050 0.041 0.075l-0.028-0.156z"></path>
<path d="M15.419 9.416c0.006-0.028 0.009-0.056 0.016-0.084-0.016-0.025-0.025-0.050-0.041-0.075l0.025 0.159z"></path>
<path d="M9.25 15.359c0.025 0.016 0.053 0.028 0.078 0.041 0.028-0.006 0.056-0.009 0.084-0.012l-0.162-0.028z"></path>
<path d="M15.434 9.331c-0.006 0.028-0.009 0.056-0.016 0.084l-0.028-0.162c0.016 0.028 0.028 0.053 0.044 0.078 0.081-0.45 0.125-0.909 0.125-1.369 0-1.019-0.2-2.009-0.594-2.941-0.381-0.9-0.925-1.709-1.619-2.403s-1.503-1.238-2.4-1.619c-0.931-0.394-1.922-0.594-2.941-0.594-0.481 0-0.963 0.044-1.431 0.134 0 0-0.003 0-0.003 0 0.025 0.012 0.053 0.025 0.078 0.041l-0.159-0.025c0.028-0.006 0.053-0.009 0.081-0.016-0.644-0.341-1.366-0.525-2.097-0.525-1.194 0-2.319 0.466-3.163 1.309s-1.309 1.969-1.309 3.163c0 0.759 0.197 1.509 0.563 2.169 0.006-0.028 0.009-0.056 0.012-0.081l0.028 0.159c-0.016-0.025-0.028-0.050-0.041-0.075-0.075 0.428-0.112 0.866-0.112 1.303 0 1.019 0.2 2.009 0.594 2.941 0.381 0.9 0.925 1.706 1.619 2.4s1.503 1.238 2.403 1.619c0.931 0.394 1.922 0.594 2.941 0.594 0.444 0 0.887-0.041 1.322-0.119-0.025-0.016-0.050-0.028-0.078-0.041l0.162 0.028c-0.028 0.006-0.056 0.009-0.084 0.012 0.669 0.378 1.428 0.581 2.2 0.581 1.194 0 2.319-0.466 3.162-1.309s1.309-1.969 1.309-3.162c-0.003-0.759-0.2-1.509-0.569-2.175zM8.034 12.591c-2.684 0-3.884-1.319-3.884-2.309 0-0.506 0.375-0.863 0.891-0.863 1.15 0 0.85 1.65 2.994 1.65 1.097 0 1.703-0.597 1.703-1.206 0-0.366-0.181-0.772-0.903-0.95l-2.388-0.597c-1.922-0.481-2.272-1.522-2.272-2.5 0-2.028 1.909-2.791 3.703-2.791 1.653 0 3.6 0.913 3.6 2.131 0 0.522-0.453 0.825-0.969 0.825-0.981 0-0.8-1.356-2.775-1.356-0.981 0-1.522 0.444-1.522 1.078s0.775 0.838 1.447 0.991l1.769 0.394c1.934 0.431 2.425 1.563 2.425 2.625 0 1.647-1.266 2.878-3.819 2.878z"></path>
</symbol>
<symbol id="icon-linkedin2" width="16" height="16" viewBox="0 0 16 16" x="32" y="64">
<path d="M6 6h2.767v1.418h0.040c0.385-0.691 1.327-1.418 2.732-1.418 2.921 0 3.461 1.818 3.461 4.183v4.817h-2.885v-4.27c0-1.018-0.021-2.329-1.5-2.329-1.502 0-1.732 1.109-1.732 2.255v4.344h-2.883v-9z"></path>
<path d="M1 6h3v9h-3v-9z"></path>
<path d="M4 3.5c0 0.828-0.672 1.5-1.5 1.5s-1.5-0.672-1.5-1.5c0-0.828 0.672-1.5 1.5-1.5s1.5 0.672 1.5 1.5z"></path>
</symbol>
<symbol id="icon-pinterest2" width="16" height="16" viewBox="0 0 16 16" x="64" y="64">
<path d="M8 0c-4.412 0-8 3.587-8 8s3.587 8 8 8 8-3.588 8-8-3.588-8-8-8zM8 14.931c-0.716 0-1.403-0.109-2.053-0.309 0.281-0.459 0.706-1.216 0.862-1.816 0.084-0.325 0.431-1.647 0.431-1.647 0.225 0.431 0.888 0.797 1.587 0.797 2.091 0 3.597-1.922 3.597-4.313 0-2.291-1.869-4.003-4.272-4.003-2.991 0-4.578 2.009-4.578 4.194 0 1.016 0.541 2.281 1.406 2.684 0.131 0.063 0.2 0.034 0.231-0.094 0.022-0.097 0.141-0.566 0.194-0.787 0.016-0.069 0.009-0.131-0.047-0.2-0.287-0.347-0.516-0.988-0.516-1.581 0-1.528 1.156-3.009 3.128-3.009 1.703 0 2.894 1.159 2.894 2.819 0 1.875-0.947 3.175-2.178 3.175-0.681 0-1.191-0.563-1.025-1.253 0.197-0.825 0.575-1.713 0.575-2.306 0-0.531-0.284-0.975-0.878-0.975-0.697 0-1.253 0.719-1.253 1.684 0 0.612 0.206 1.028 0.206 1.028s-0.688 2.903-0.813 3.444c-0.141 0.6-0.084 1.441-0.025 1.988-2.578-1.006-4.406-3.512-4.406-6.45 0-3.828 3.103-6.931 6.931-6.931s6.931 3.103 6.931 6.931c0 3.828-3.103 6.931-6.931 6.931z"></path>
</symbol>
<symbol id="icon-chrome" width="16" height="16" viewBox="0 0 16 16" x="96" y="64">
<path d="M4.036 6.977l-2.29-3.966c1.466-1.835 3.722-3.012 6.254-3.012 2.929 0 5.489 1.574 6.883 3.922h-6.528c-0.117-0.010-0.236-0.016-0.356-0.016-1.904 0-3.509 1.307-3.964 3.071zM10.864 5.078h4.585c0.355 0.905 0.551 1.891 0.551 2.922 0 4.388-3.533 7.95-7.909 7.999l3.272-5.667c0.461-0.662 0.731-1.466 0.731-2.332 0-1.143-0.471-2.178-1.23-2.922zM5.094 8c0-1.603 1.304-2.906 2.906-2.906s2.906 1.304 2.906 2.906c0 1.602-1.304 2.906-2.906 2.906s-2.906-1.304-2.906-2.906zM9.097 11.944l-2.29 3.967c-3.852-0.576-6.806-3.899-6.806-7.911 0-1.425 0.373-2.763 1.026-3.922l3.266 5.657c0.654 1.392 2.070 2.359 3.707 2.359 0.38 0 0.747-0.052 1.097-0.149z"></path>
</symbol>
<symbol id="icon-edge" width="16" height="16" viewBox="0 0 16 16" x="128" y="64">
<path d="M0.241 7.103c0.469-3.7 2.994-7.056 7.519-7.103 2.731 0.053 4.978 1.291 6.316 3.65 0.672 1.231 0.881 2.525 0.925 3.953v1.678h-10.041c0.047 4.141 6.094 4 8.697 2.175v3.372c-1.525 0.916-4.984 1.734-7.662 0.681-2.281-0.856-3.906-3.244-3.897-5.541-0.075-2.978 1.481-4.95 3.897-6.072-0.513 0.634-0.903 1.334-1.106 2.547h5.669c0 0 0.331-3.388-3.209-3.388-3.338 0.116-5.744 2.056-7.106 4.047v0z"></path>
</symbol>
</svg>
